<svg title="Stack Overflow" aria-hidden="true" class="native svg-icon iconMarketingAdvertising mb16" width="157" height="37" viewBox="0 0 157 37"><path fill="#BCBBBB" d="M21.93 20v7.97H3V20H0v10.97h24.92V20z"></path><path fill="#F48024" d="M5.52 25.45h13.89v-2.62H5.52zm.28-6.27L19.29 22l.55-2.7-13.49-2.83zm1.78-6.47 12.49 5.83 1.16-2.5L8.74 10.2zm3.47-6.14 10.6 8.83 1.77-2.11L12.8 4.46zM17.87.04l-2.22 1.64 8.22 11.08 2.22-1.64z"></path><path fill="currentColor" d="m35.66 19.27-1.77-.17c-1.4-.1-1.93-.68-1.93-1.6 0-1.14.86-1.83 2.47-1.83q1.73-.02 2.93.87l1.06-1.05a6.2 6.2 0 0 0-3.98-1.18c-2.36 0-4.06 1.21-4.06 3.24 0 1.82 1.15 2.79 3.3 2.97l1.82.16c1.27.1 1.84.64 1.84 1.61 0 1.3-1.12 1.95-2.93 1.95a4.5 4.5 0 0 1-3.44-1.27l-1.07 1.08c1.22 1.16 2.67 1.59 4.53 1.59 2.66 0 4.49-1.24 4.49-3.37 0-2.07-1.33-2.83-3.26-3m13.81-4.96c-1.77 0-2.88.35-3.86 1.59-.02.02 1.05 1.06 1.05 1.06.65-.92 1.38-1.26 2.8-1.26 2.02 0 2.82.8 2.82 2.42v1.06h-3.32c-2.47 0-3.81 1.25-3.81 3.18 0 .88.28 1.7.82 2.24.7.71 1.59 1 3.11 1 1.49 0 2.3-.29 3.19-1.18v1.06h1.6v-7.5c.02-2.38-1.42-3.67-4.4-3.67m2.81 7.26q0 1.38-.55 1.92c-.7.68-1.52.73-2.47.73-1.75 0-2.54-.6-2.54-1.88s.8-1.95 2.47-1.95h3.1zm7.95-5.83c1.05 0 1.7.32 2.54 1.23l1.07-1.05a4.3 4.3 0 0 0-3.61-1.61c-2.8 0-4.89 1.88-4.89 5.65s2.11 5.66 4.89 5.66c1.52 0 2.49-.41 3.63-1.65l-1.1-1.05c-.81.91-1.48 1.25-2.53 1.25a3 3 0 0 1-2.56-1.25c-.52-.72-.72-1.58-.72-2.98s.2-2.23.72-2.97a3 3 0 0 1 2.56-1.23m13.83-1.3h-2.02l-5.01 4.86V9.5h-1.61v16h1.6v-4.03L69 19.5l3.7 6h2l-4.58-7.13zm7.6-.58c-1.7 0-2.84.66-3.56 1.41-1.04 1.08-1.3 2.38-1.3 4.46 0 2.1.26 3.4 1.3 4.48a4.7 4.7 0 0 0 3.56 1.41c1.7 0 2.87-.66 3.58-1.41 1.04-1.08 1.3-2.39 1.3-4.48 0-2.08-.26-3.38-1.3-4.46a4.8 4.8 0 0 0-3.58-1.41M83 22.52q-.5.5-1.34.5-.85-.01-1.32-.5c-.6-.59-.66-1.6-.66-2.8s.07-2.2.66-2.78c.34-.34.75-.5 1.32-.5q.86.01 1.34.5c.6.59.67 1.6.67 2.77 0 1.2-.08 2.22-.67 2.81M94.17 14l-2.33 7.1L89.5 14h-3l4.23 11.5H93L97.2 14zm7.9-.13c-2.98 0-5 2.11-5 5.87 0 4.66 2.6 5.89 5.31 5.89a5.5 5.5 0 0 0 4.37-1.8l-1.74-1.7a3.2 3.2 0 0 1-2.61 1.06c-1.61 0-2.52-1.07-2.52-2.55h7.19v-1.3c.02-3.14-1.79-5.47-5-5.47m-2.18 4.8c.02-.5.1-.83.27-1.24a2 2 0 0 1 1.92-1.2c.96 0 1.6.5 1.91 1.2.18.41.25.73.27 1.24zm11.44-3.57V14h-2.81v11.5h2.86v-6.92c0-1.45.97-2.12 1.86-2.12.7 0 1.08.24 1.52.69l2.17-2.19a3.5 3.5 0 0 0-2.72-1.07 3.8 3.8 0 0 0-2.88 1.21m6.5-2.3v12.69h2.86V16.4h2.12v-2.18h-2.1v-1.26c0-.66.33-1.04 1.01-1.04h1.11V9.5h-1.63c-2.36 0-3.38 1.67-3.38 3.3m16.8 1.07c-1.7 0-2.85.66-3.57 1.41-1.04 1.08-1.3 2.38-1.3 4.46 0 2.1.26 3.4 1.3 4.48.7.75 1.86 1.41 3.56 1.41s2.87-.66 3.58-1.41c1.04-1.08 1.3-2.39 1.3-4.48 0-2.08-.26-3.38-1.3-4.46a4.8 4.8 0 0 0-3.58-1.41m1.35 8.66q-.5.5-1.34.5-.85-.01-1.32-.5c-.6-.59-.67-1.6-.67-2.8s.08-2.2.67-2.78c.34-.34.75-.5 1.32-.5q.86.01 1.34.5c.6.59.66 1.6.66 2.77 0 1.2-.07 2.22-.66 2.81M153.07 14l-1.86 7.1-2.36-7.1h-2.1l-2.34 7.1-1.86-7.1h-3.04l3.52 11.5h2.36l2.4-7.2 2.4 7.2h2.36l3.54-11.5zm-26.02 8.03V9.5h-2.86v12.7c0 1.63 1 3.3 3.37 3.3h1.62v-2.44h-1.1c-.74 0-1.03-.36-1.03-1.04M43.4 16.2l1.49-1.49h-3.06v-3.65H40.2v11.47c0 1.65.95 2.98 2.82 2.98h1.15v-1.4h-.86c-1.04 0-1.5-.6-1.5-1.61v-6.3z"></path></svg>